<svg width="36" height="34" viewBox="0 0 36 34" fill="none" xmlns="http://www.w3.org/2000/svg">
<g clip-path="url(#clip0_223_196)">
<path d="M17.8523 34C17.3946 34 17.0232 33.6374 17.0232 33.1905V0.809492C17.0232 0.362644 17.3946 0 17.8523 0C18.31 0 18.6814 0.362644 18.6814 0.809492V33.1905C18.6814 33.6374 18.31 34 17.8523 34Z" fill="white"/>
<path d="M34.4354 17.8094H1.26924C0.811562 17.8094 0.440125 17.4468 0.440125 16.9999C0.440125 16.5531 0.811562 16.1904 1.26924 16.1904H34.4354C34.8931 16.1904 35.2645 16.5531 35.2645 16.9999C35.2645 17.4468 34.8931 17.8094 34.4354 17.8094Z" fill="white"/>
</g>
<defs>
<clipPath id="clip0_223_196">
<rect width="34.8244" height="34" fill="white" transform="translate(0.440125)"/>
</clipPath>
</defs>
</svg>
